<svg width="40" height="40" viewBox="0 0 40 40" fill="none" xmlns="http://www.w3.org/2000/svg">
<path d="M31.7833 8.21687C29.0486 5.46437 25.4393 3.75222 21.5777 3.3756C17.716 2.99898 13.8439 3.9815 10.6289 6.15375C7.41399 8.32601 5.05768 11.5519 3.96623 15.2752C2.87477 18.9986 3.11658 22.986 4.64995 26.5502C4.80977 26.8815 4.86221 27.2544 4.79995 27.6169L3.33329 34.6669C3.27678 34.9372 3.28832 35.2173 3.36687 35.482C3.44541 35.7467 3.58851 35.9878 3.78329 36.1835C3.94296 36.342 4.13308 36.4666 4.34218 36.5497C4.55128 36.6327 4.77503 36.6726 4.99995 36.6669H5.33329L12.4666 35.2335C12.8292 35.1899 13.1968 35.2416 13.5333 35.3835C17.0975 36.9169 21.0849 37.1587 24.8083 36.0673C28.5316 34.9758 31.7575 32.6195 33.9297 29.4046C36.102 26.1896 37.0845 22.3175 36.7079 18.4558C36.3313 14.5941 34.6191 10.9848 31.8666 8.2502L31.7833 8.21687ZM13.3333 21.6669C13.0036 21.6669 12.6814 21.5691 12.4073 21.386C12.1333 21.2028 11.9196 20.9425 11.7935 20.638C11.6673 20.3335 11.6343 19.9984 11.6986 19.675C11.763 19.3517 11.9217 19.0548 12.1548 18.8217C12.3879 18.5886 12.6848 18.4299 13.0081 18.3656C13.3314 18.3012 13.6665 18.3343 13.9711 18.4604C14.2756 18.5865 14.5359 18.8002 14.7191 19.0742C14.9022 19.3483 15 19.6706 15 20.0002C15 20.4422 14.8244 20.8661 14.5118 21.1787C14.1992 21.4913 13.7753 21.6669 13.3333 21.6669ZM20 21.6669C19.6703 21.6669 19.3481 21.5691 19.074 21.386C18.7999 21.2028 18.5863 20.9425 18.4602 20.638C18.334 20.3335 18.301 19.9984 18.3653 19.675C18.4296 19.3517 18.5884 19.0548 18.8214 18.8217C19.0545 18.5886 19.3515 18.4299 19.6748 18.3656C19.9981 18.3012 20.3332 18.3343 20.6378 18.4604C20.9423 18.5865 21.2026 18.8002 21.3857 19.0742C21.5689 19.3483 21.6666 19.6706 21.6666 20.0002C21.6666 20.4422 21.491 20.8661 21.1785 21.1787C20.8659 21.4913 20.442 21.6669 20 21.6669ZM26.6666 21.6669C26.337 21.6669 26.0147 21.5691 25.7407 21.386C25.4666 21.2028 25.253 20.9425 25.1268 20.638C25.0007 20.3335 24.9677 19.9984 25.032 19.675C25.0963 19.3517 25.255 19.0548 25.4881 18.8217C25.7212 18.5886 26.0182 18.4299 26.3415 18.3656C26.6648 18.3012 26.9999 18.3343 27.3044 18.4604C27.609 18.5865 27.8693 18.8002 28.0524 19.0742C28.2355 19.3483 28.3333 19.6706 28.3333 20.0002C28.3333 20.4422 28.1577 20.8661 27.8451 21.1787C27.5326 21.4913 27.1086 21.6669 26.6666 21.6669Z" fill="url(#paint0_linear_198_9543)"/>
<defs>
<linearGradient id="paint0_linear_198_9543" x1="3.29321" y1="1.24333" x2="41.9555" y2="7.24244" gradientUnits="userSpaceOnUse">
<stop stop-color="#53E88B"/>
<stop offset="1" stop-color="#15BE77"/>
</linearGradient>
</defs>
</svg>
