<svg width="25" height="25" viewBox="0 0 25 25" fill="none" xmlns="http://www.w3.org/2000/svg">
<path opacity="0.4" fill-rule="evenodd" clip-rule="evenodd" d="M16.8224 6.44565C16.8451 6.61228 16.8666 6.76924 16.878 6.97696L4.86261 18.991H4.58472C2.82475 18.991 1.54116 17.7472 1.30297 15.8155C1.03831 13.8837 1.09125 10.5759 1.30297 8.81611C1.5544 6.99019 2.90415 5.73322 4.58472 5.73322H6.874L11.2408 2.15945C11.7702 1.7109 12.7097 1.2875 13.4375 1.27295C14.7608 1.27295 15.9782 2.20046 16.4149 3.68237C16.5869 4.30291 16.6531 4.92611 16.706 5.52019L16.8119 6.36832C16.8154 6.39447 16.8189 6.42017 16.8224 6.44565ZM15.6009 14.1646C15.7809 13.9886 16.1792 13.8642 16.3592 13.9092C16.8461 14.0336 16.9401 14.7309 16.9335 15.2787C16.911 16.8691 16.8567 17.9752 16.772 18.6593L16.7125 19.2229L16.7114 19.2334C16.6549 19.8004 16.5963 20.3872 16.4293 21.0131C15.9873 22.4924 14.8056 23.453 13.4638 23.453C13.4188 23.453 13.3752 23.453 13.3302 23.4516C12.5891 23.4516 11.7832 23.0071 11.3267 22.6194L9.7004 21.3611C9.08375 20.902 9.26504 20.1676 9.61174 19.7429C9.87055 19.4268 12.9803 16.5728 14.6151 15.0724C15.1702 14.5629 15.5553 14.2095 15.6009 14.1646Z" fill="url(#paint0_linear_456_2)"/>
<path d="M24.1594 1.08723C23.6923 0.636047 22.9751 0.638693 22.5252 1.08856L1.08794 22.5232C0.636695 22.9744 0.636695 23.6929 1.09191 24.1652C1.3248 24.3809 1.61328 24.5 1.90573 24.5C2.20479 24.5 2.51179 24.3743 2.72484 24.1613L24.1607 2.72659C24.6133 2.27408 24.6133 1.54107 24.1594 1.08723Z" fill="url(#paint1_linear_456_2)"/>
<defs>
<linearGradient id="paint0_linear_456_2" x1="1.12378" y1="-0.0889805" x2="19.5879" y2="1.95017" gradientUnits="userSpaceOnUse">
<stop stop-color="#53E88B"/>
<stop offset="1" stop-color="#15BE77"/>
</linearGradient>
<linearGradient id="paint1_linear_456_2" x1="0.75" y1="-0.708333" x2="28.1671" y2="3.53955" gradientUnits="userSpaceOnUse">
<stop stop-color="#53E88B"/>
<stop offset="1" stop-color="#15BE77"/>
</linearGradient>
</defs>
</svg>
