<svg width="22" height="18" viewBox="0 0 22 18" fill="none" xmlns="http://www.w3.org/2000/svg">
<path d="M12.3571 3.45056C12.3068 2.96422 12.2543 2.45963 12.1254 1.95611C11.7741 0.75153 10.801 9.59513e-06 9.75762 9.59513e-06C9.17565 -0.00213761 8.43954 0.356445 8.0222 0.719322L4.56287 3.61697H2.75194C1.41918 3.61697 0.347511 4.6444 0.145131 6.12705C-0.0268386 7.55064 -0.0687825 10.2379 0.145131 11.8042C0.330733 13.3706 1.35416 14.383 2.75194 14.383H4.56287L8.08931 17.3236C8.45107 17.6382 9.08967 17.9989 9.67688 17.9989C9.71463 18 9.74819 18 9.78174 18C10.845 18 11.7814 17.2206 12.1327 16.0192C12.2659 15.5082 12.312 15.0293 12.3571 14.5666L12.4043 14.1082C12.5846 12.6213 12.5846 5.36908 12.4043 3.89288L12.3571 3.45056Z" fill="url(#paint0_linear_456_115)"/>
<path opacity="0.4" d="M16.4066 3.49468C16.1182 3.06953 15.5468 2.96325 15.1284 3.25849C14.7142 3.55587 14.6114 4.14206 14.8998 4.56613C15.7019 5.74816 16.1434 7.32206 16.1434 9.0001C16.1434 10.6771 15.7019 12.252 14.8998 13.4341C14.6114 13.8581 14.7142 14.4443 15.1294 14.7417C15.2846 14.8512 15.466 14.9092 15.6527 14.9092C15.9536 14.9092 16.2346 14.7578 16.4066 14.5055C17.4195 13.0132 17.9785 11.0582 17.9785 9.0001C17.9785 6.94201 17.4195 4.98698 16.4066 3.49468Z" fill="url(#paint1_linear_456_115)"/>
<path opacity="0.4" d="M19.5672 0.457259C19.2809 0.0331865 18.7073 -0.0752471 18.29 0.221067C17.8758 0.518454 17.773 1.10464 18.0603 1.52871C19.4172 3.52776 20.1649 6.18169 20.1649 8.9999C20.1649 11.8192 19.4172 14.4731 18.0603 16.4722C17.773 16.8973 17.8758 17.4824 18.291 17.7798C18.4462 17.8893 18.6266 17.9473 18.8132 17.9473C19.1142 17.9473 19.3963 17.7959 19.5672 17.5436C21.1359 15.2343 21.9999 12.2003 21.9999 8.9999C21.9999 5.80164 21.1359 2.76657 19.5672 0.457259Z" fill="url(#paint2_linear_456_115)"/>
<defs>
<linearGradient id="paint0_linear_456_115" x1="-1.77817e-08" y1="-1.10526" x2="14.6525" y2="0.47625" gradientUnits="userSpaceOnUse">
<stop stop-color="#53E88B"/>
<stop offset="1" stop-color="#15BE77"/>
</linearGradient>
<linearGradient id="paint1_linear_456_115" x1="14.7361" y1="2.36565" x2="18.562" y2="2.52828" gradientUnits="userSpaceOnUse">
<stop stop-color="#53E88B"/>
<stop offset="1" stop-color="#15BE77"/>
</linearGradient>
<linearGradient id="paint2_linear_456_115" x1="17.8975" y1="-1.04502" x2="22.7409" y2="-0.872966" gradientUnits="userSpaceOnUse">
<stop stop-color="#53E88B"/>
<stop offset="1" stop-color="#15BE77"/>
</linearGradient>
</defs>
</svg>
